<svg width="263" height="74" viewBox="0 0 263 74" fill="none" xmlns="http://www.w3.org/2000/svg">
<path fill-rule="evenodd" clip-rule="evenodd" d="M26.4816 19.2498C24.591 19.9606 22.6826 22.6161 22.689 24.5287C22.6911 25.3221 23.327 26.9316 24.1018 28.1056C24.8766 29.2797 25.5125 30.7789 25.5146 31.437C25.5175 32.0952 26.5305 33.3561 27.7661 34.2391L30.0126 35.845L31.0426 34.2875C31.609 33.4315 32.5937 32.7306 33.2303 32.7306C34.8692 32.7306 36.1793 28.181 35.3584 25.3434C35.0053 24.1231 34.899 22.2746 35.1216 21.2357C35.6497 18.7752 34.5927 18.2017 31.4474 19.2441C29.79 19.7927 28.7387 19.8418 28.448 19.3843C28.1879 18.9737 27.3663 18.9175 26.4816 19.2498ZM27.2918 21.346C25.2502 21.7132 24.9525 21.8982 26.2285 22.0063C27.8696 22.1465 27.8958 22.2027 26.5829 22.7691C25.3757 23.2899 25.4912 23.3881 27.3592 23.4308C28.7018 23.4614 30.0509 22.9285 30.8363 22.0575C32.2477 20.4922 32.1506 20.4729 27.2918 21.346ZM71.4723 38.9616C71.5978 47.3862 71.5084 55.048 71.2738 55.988C71.0385 56.9272 70.1382 57.9824 69.2726 58.3318C68.1837 58.7715 69.878 58.9814 74.7687 59.0127C81.3621 59.0547 81.7321 58.9828 80.2626 57.9497C78.7569 56.8916 78.6867 56.3807 78.6867 46.5017V36.1617L80.9906 38.1013C82.2574 39.1672 87.7606 44.3785 93.2191 49.6802L103.144 59.3208L103.531 42.2901C103.743 32.9234 103.982 25.1791 104.062 25.0816C104.142 24.9841 104.924 24.8987 105.802 24.893C106.749 24.8866 107.067 24.6696 106.585 24.3594C106.137 24.0719 103.188 23.941 100.03 24.0684C94.9346 24.274 94.4079 24.4199 95.3493 25.3641C96.1929 26.2115 96.4091 28.5404 96.4091 36.7722V47.1151L90.2063 41.4057C86.7951 38.265 82.5679 34.2014 80.8134 32.3756C79.0589 30.549 76.1879 27.8374 74.4333 26.3495L71.2433 23.6436L71.4723 38.9616ZM121.771 24.0129C111.556 24.2256 111.362 24.2583 112.666 25.5676C113.878 26.7836 114.007 28.2323 114.085 41.5117C114.169 55.7332 114.13 56.1573 112.6 57.5882L111.029 59.0575H123.231C136.949 59.0575 135.958 59.4774 137.105 53.1788L137.592 50.5013L134.774 53.5346L131.957 56.5672H126.766H121.575V49.8075V43.0479L124.918 42.8323C128.736 42.5854 130.949 43.5211 131.849 45.7624C132.291 46.8618 132.472 45.7546 132.47 41.9806C132.467 37.6032 132.327 36.9344 131.691 38.2607C130.772 40.1733 128.971 40.7319 124.708 40.4266L121.575 40.2018L121.372 33.2643L121.169 26.3268H126.519C130.944 26.3268 132.072 26.5666 133.05 27.7136C134.641 29.5778 135.184 29.0598 134.829 26.0144C134.615 24.1722 134.217 23.5233 133.372 23.6379C132.731 23.7247 127.511 23.8933 121.771 24.0129ZM161.259 33.477C159.009 38.9608 156.936 43.5915 156.652 43.7673C156.369 43.943 154.782 40.189 153.126 35.4252C150.714 28.4877 150.274 26.5075 150.915 25.4779C151.665 24.2733 151.309 24.1922 145.29 24.1922H138.863L140.61 25.7931C141.571 26.674 143.005 29.3152 143.798 31.6633C144.977 35.1548 151.992 54.3244 153.562 58.346C153.898 59.2027 154.089 59.133 154.536 57.9902C159.215 46.0407 163.385 36.415 163.777 36.6583C164.049 36.8269 166.428 41.8561 169.064 47.8337C174.222 59.5336 175.092 61.0427 175.104 58.3104C175.108 57.3513 177.185 49.8431 179.72 41.6249C182.92 31.2478 184.783 26.3019 185.816 25.4374C187.273 24.2185 187.23 24.1922 183.748 24.1922C180.533 24.1922 180.227 24.3295 180.565 25.6245C180.95 27.1066 176.501 44.1152 175.726 44.1152C175.486 44.1152 173.283 39.6212 170.832 34.1295C168.381 28.6371 166.145 24 165.862 23.825C165.58 23.65 163.509 27.9932 161.259 33.477ZM195.951 24.1445C195.14 24.4882 193.624 25.7846 192.583 27.0255C191.11 28.783 190.692 30.036 190.692 32.6894C190.692 37.0475 192.075 38.8313 199.095 43.5303C206.661 48.5944 207.706 49.6603 207.706 52.3114C207.706 55.3668 205.647 57.0645 201.51 57.4217C197.106 57.8024 193.823 55.8321 192.276 51.8824C190.956 48.5083 190.01 49.3365 189.994 53.8804C189.985 56.5451 190.245 57.029 192.287 58.1397C195.512 59.8943 205.03 59.8851 208.268 58.1233C211.384 56.4298 213.371 52.9988 213.374 49.3073C213.378 44.5614 212.228 43.0558 204.946 38.2728C201.2 35.813 197.747 33.3198 197.272 32.732C194.765 29.6297 197.804 25.6152 202.658 25.6152C206.337 25.6152 208.055 26.4733 209.462 29.0128C210.526 30.9347 210.534 30.9205 210.361 27.3941L210.187 23.8364L203.807 23.6784C200.298 23.5916 196.762 23.8015 195.951 24.1445ZM216.943 27.0383C216.962 29.7927 217.076 30.0417 217.768 28.8172C219.004 26.6292 219.77 26.3495 224.542 26.3374L228.972 26.3268L228.962 41.0912C228.955 49.2113 228.717 56.2029 228.43 56.6276C228.144 57.0524 227.271 57.7633 226.491 58.2073C225.36 58.8512 226.498 59.0184 232.119 59.0362L239.164 59.0575L237.613 57.6067C236.112 56.2036 236.061 55.6678 236.061 41.2413V26.3268H240.965C245.481 26.3268 245.984 26.4812 247.352 28.2835L248.836 30.2402L248.651 27.0981L248.467 23.9559L232.695 23.8962L216.922 23.8364L216.943 27.0383ZM44.9958 24.9336C44.7597 25.3171 46.4752 26.5374 48.8075 27.6445L53.0495 29.6582L49.7404 31.2684C47.9207 32.1536 45.156 33.7403 43.5964 34.7948C42.0368 35.8486 40.1228 36.9735 39.3431 37.2944C38.4357 37.6673 38.2443 37.9967 38.8114 38.2095C40.1037 38.694 39.8953 39.846 38.5158 39.846C37.8664 39.846 37.5375 40.0502 37.7863 40.2992C38.0344 40.549 37.5467 41.7273 36.7017 42.9184C35.8567 44.1095 35.5469 44.8467 36.0134 44.5578C36.4798 44.2682 36.8619 44.3707 36.8619 44.7848C36.8619 45.1989 36.5528 45.5383 36.175 45.5383C35.7979 45.5383 35.6724 46.0186 35.8964 46.6056C36.1211 47.1926 35.9616 47.6729 35.542 47.6729C35.123 47.6729 34.9635 48.1532 35.1875 48.7402C35.4122 49.3273 35.2237 49.8075 34.7693 49.8075C34.3149 49.8075 34.1178 50.0914 34.3312 50.4387C34.5445 50.7852 34.2695 51.4441 33.7194 51.903C32.7312 52.7263 30.9554 56.9229 31.5948 56.9229C31.777 56.9229 35.0571 55.3454 38.8851 53.4172C45.453 50.1092 45.9145 49.73 47.0707 46.691C47.7938 44.7898 48.8791 43.2849 49.7191 43.0166C50.567 42.7469 50.9874 42.1578 50.7591 41.5608C50.5478 41.0087 50.7244 40.5575 51.1504 40.5575C51.6211 40.5575 51.7707 39.777 51.5304 38.5716C51.2886 37.3585 51.6736 35.3775 52.5186 33.4827C53.2799 31.7757 53.7365 29.8546 53.5337 29.2128C53.0644 27.7292 45.5835 23.9794 44.9958 24.9336ZM18.878 28.3582C18.1903 29.121 17.8813 30.1862 18.1464 30.8799C18.5774 32.0056 18.6894 32.0049 19.9363 30.8721C21.2776 29.6532 21.7766 27.0383 20.6672 27.0383C20.3376 27.0383 19.5323 27.6324 18.878 28.3582ZM44.6598 27.3756C44.6598 27.9064 48.7402 29.888 49.7638 29.8546C50.2707 29.8382 49.5689 29.2114 48.2042 28.4614C45.6891 27.0796 44.6598 26.7644 44.6598 27.3756ZM43.242 29.0868C43.242 29.8653 47.3947 31.6455 47.9384 31.0998C48.1567 30.8806 47.3649 30.1968 46.1789 29.5814C43.7006 28.2949 43.242 28.218 43.242 29.0868ZM43.5447 31.6783C44.2961 32.2489 45.0844 32.5421 45.2963 32.3286C45.7415 31.8825 43.9409 30.6124 42.8875 30.6294C42.4976 30.6358 42.7932 31.1083 43.5447 31.6783ZM12.0506 32.0739C12.0506 33.1099 15.985 36.9998 17.0334 36.9998C17.4942 36.9998 16.881 36.0706 15.6702 34.9357C14.4594 33.8001 13.4684 32.5193 13.4684 32.0895C13.4684 31.659 13.1494 31.3075 12.7595 31.3075C12.3696 31.3075 12.0506 31.6526 12.0506 32.0739ZM42.1786 33.4422C42.4197 33.8335 42.9166 34.1537 43.2838 34.1537C43.651 34.1537 43.9509 33.8335 43.9509 33.4422C43.9509 33.0508 43.4532 32.7306 42.8457 32.7306C42.2382 32.7306 41.9376 33.0508 42.1786 33.4422ZM20.2759 36.6989L16.9547 39.2448L20.5127 41.0243C24.2081 42.8722 27.1678 46.0649 29.5568 50.7788L30.9512 53.5296L31.8819 51.274C32.7688 49.1252 32.6986 48.9003 30.4067 46.4989C29.0832 45.1121 26.4057 43.0515 24.4563 41.9187C22.5068 40.7859 21.3953 39.8567 21.9858 39.8524C23.6368 39.8424 28.458 42.594 30.9334 44.9598C33.4174 47.3335 33.355 47.3776 35.0911 42.0411C36.2976 38.3319 36.2962 38.1533 35.05 37.2382C32.7964 35.5846 31.889 36.0457 32.3739 38.6008C32.6149 39.8723 32.583 40.7027 32.303 40.4451C32.0223 40.1875 31.7097 39.4041 31.6076 38.7047C31.5048 38.0053 31.0171 37.2973 30.523 37.1322C29.8963 36.9223 29.7687 37.288 30.1005 38.339C30.8193 40.6109 29.8247 40.1633 27.1274 36.9998C25.7925 35.4345 24.452 34.1537 24.1486 34.1537C23.8452 34.1537 22.102 35.2993 20.2759 36.6989ZM11.7422 37.6367C11.2155 38.4919 13.187 39.1978 14.5913 38.657C15.4951 38.3091 15.5299 38.1077 14.7685 37.6232C13.5301 36.8355 12.2321 36.8412 11.7422 37.6367ZM49.4895 38.9089C50.0006 39.1145 50.6124 39.0889 50.8477 38.8527C51.0831 38.6165 50.6648 38.4485 49.9176 38.4791C49.0918 38.5133 48.9238 38.6819 49.4895 38.9089ZM10.927 40.4601C11.1468 40.8165 12.5149 41.3317 13.9675 41.6049C17.8394 42.3343 20.4978 43.8655 24.279 47.5449C26.1307 49.3472 27.6463 50.4906 27.6463 50.0865C27.6463 48.5474 22.5933 43.5183 19.6904 42.1692C16.3281 40.6066 10.2925 39.4298 10.927 40.4601ZM12.7595 43.509C17.6346 45.4921 20.5977 47.2972 22.7712 49.6097C25.2821 52.2809 24.6009 52.1805 20.7346 49.3102C16.2501 45.9816 10.4457 44.5514 7.92696 46.1545C7.33645 46.5302 8.53023 46.9102 11.1758 47.1877C15.7666 47.6694 17.7218 48.2393 17.7218 49.0967C17.7218 49.4041 16.4741 49.3386 14.9486 48.9494C13.0452 48.4649 11.7677 48.4819 10.8724 49.0035C9.80978 49.624 10.1692 49.7684 12.8254 49.7862C16.1012 49.8075 23.1292 51.871 25.8365 53.6065C28.5983 55.376 29.6432 55.5105 29.2619 54.0469C29.069 53.3069 28.3204 52.5128 27.5988 52.283C26.8771 52.0532 25.3098 50.6265 24.1153 49.1131C21.732 46.0926 15.644 42.6644 12.7978 42.7405L10.9873 42.7882L12.7595 43.509ZM37.3936 56.6084C30.0835 60.3077 24.1018 63.6797 24.1018 64.1016C24.1018 64.5229 24.3414 64.7548 24.6335 64.6161C28.2446 62.8992 43.3618 55.5226 47.2905 53.5595C50.1027 52.1549 52.2371 50.7361 52.0337 50.4067C51.8309 50.0772 51.4446 49.8246 51.1752 49.8453C50.9058 49.8659 44.7044 52.9099 37.3936 56.6084ZM17.0129 55.4436C17.0129 55.8037 18.05 56.3217 19.3168 56.5942C20.5836 56.8667 22.8768 57.6928 24.4123 58.4293C27.7625 60.0373 28.8316 60.1355 27.6683 58.7288C26.7623 57.6323 19.8187 54.7883 18.0493 54.7883C17.4793 54.7883 17.0129 55.0829 17.0129 55.4436Z" fill="#C53030"/>
</svg>
