<svg width="83" height="17" viewBox="0 0 83 17" fill="none" xmlns="http://www.w3.org/2000/svg">
<path fill-rule="evenodd" clip-rule="evenodd" d="M1.16101 7.27174C1.2189 11.2663 1.17769 14.8991 1.06942 15.3448C0.960824 15.7901 0.545413 16.2904 0.146027 16.4561C-0.356394 16.6646 0.425369 16.7641 2.68201 16.779C5.72434 16.7989 5.89508 16.7648 5.21701 16.2749C4.52226 15.7732 4.48987 15.531 4.48987 10.8469V5.94417L5.55294 6.86385C6.13746 7.36924 8.67671 9.84017 11.1954 12.354L15.7747 16.925L15.9533 8.84998C16.0514 4.40877 16.1617 0.736786 16.1986 0.690565C16.2353 0.644345 16.5964 0.60386 17.0013 0.601161C17.4383 0.598125 17.5849 0.495225 17.3624 0.34813C17.156 0.21183 15.7953 0.149754 14.3381 0.210145C11.9869 0.307646 11.7439 0.376808 12.1783 0.824504C12.5675 1.22632 12.6673 2.33054 12.6673 6.23363V11.1377L9.8052 8.43062C8.23121 6.94145 6.28073 5.0147 5.47117 4.149C4.6616 3.28296 3.33686 1.99722 2.52729 1.29177L1.05536 0.0087318L1.16101 7.27174ZM24.3698 0.183828C19.6564 0.284704 19.5668 0.300222 20.1686 0.920992C20.7276 1.49757 20.7872 2.18446 20.8235 8.48089C20.8621 15.224 20.8441 15.4251 20.1382 16.1035L19.413 16.8002H25.0433C31.3733 16.8002 30.916 16.9993 31.4453 14.0128L31.67 12.7433L30.3698 14.1815L29.0696 15.6194H26.6746H24.2792V12.4143V9.20928L25.8218 9.10706C27.5836 8.98999 28.6048 9.43364 29.0199 10.4964C29.2236 11.0176 29.3074 10.4927 29.3064 8.70322C29.3051 6.62769 29.2406 6.31056 28.9469 6.93942C28.523 7.84629 27.6918 8.11112 25.725 7.96639L24.2792 7.85978L24.1857 4.57038L24.0921 1.28097H26.5604C28.6022 1.28097 29.1229 1.39467 29.5743 1.93852C30.3083 2.82244 30.5585 2.57683 30.395 1.13287C30.2962 0.259402 30.1124 -0.0482883 29.7225 0.0060291C29.4271 0.0471888 27.0183 0.127149 24.3698 0.183828ZM42.5901 4.67125C41.5519 7.2714 40.5955 9.46704 40.4646 9.55037C40.3338 9.6337 39.6018 7.85371 38.8377 5.59498C37.7246 2.30558 37.5218 1.36667 37.8171 0.878485C38.1632 0.30731 37.999 0.268847 35.2216 0.268847H32.2565L33.0624 1.02794C33.5057 1.44561 34.1677 2.69795 34.5334 3.81128C35.0774 5.46678 38.3143 14.556 39.0388 16.4628C39.1935 16.869 39.2819 16.836 39.4883 16.2942C41.6471 10.6283 43.5711 6.06427 43.7523 6.17966C43.8776 6.25961 44.9753 8.64418 46.1915 11.4785C48.5717 17.0259 48.9731 17.7415 48.9783 16.446C48.9803 15.9912 49.9387 12.4312 51.1084 8.53453C52.5849 3.61426 53.4445 1.26916 53.9214 0.859253C54.5936 0.28133 54.5737 0.268847 52.967 0.268847C51.4836 0.268847 51.3426 0.33396 51.4983 0.947982C51.6762 1.65073 49.623 9.71534 49.2655 9.71534C49.1546 9.71534 48.1383 7.58448 47.0076 4.98063C45.8765 2.37643 44.8445 0.177753 44.7143 0.094759C44.5841 0.0117648 43.6283 2.0711 42.5901 4.67125ZM58.5976 0.246242C58.2234 0.409194 57.5241 1.02389 57.0439 1.61227C56.3642 2.44559 56.1712 3.03971 56.1712 4.29778C56.1712 6.3642 56.8094 7.21 60.0486 9.43802C63.5394 11.8391 64.0215 12.3445 64.0215 13.6016C64.0215 15.0503 63.0716 15.8552 61.1627 16.0246C59.1308 16.2051 57.6156 15.2709 56.9022 13.3981C56.2929 11.7983 55.8565 12.191 55.849 14.3455C55.8447 15.6089 55.9648 15.8384 56.9072 16.365C58.3951 17.197 62.7867 17.1926 64.2812 16.3572C65.7188 15.5543 66.6357 13.9275 66.637 12.1772C66.6389 9.92688 66.1084 9.21299 62.7481 6.94516C61.0197 5.77885 59.4265 4.59669 59.2073 4.31802C58.0504 2.84706 59.4526 0.943596 61.6926 0.943596C63.3899 0.943596 64.1828 1.35047 64.8321 2.55456C65.323 3.46581 65.3266 3.45906 65.2468 1.78703L65.1664 0.100159L62.2225 0.0252618C60.6033 -0.0158979 58.9721 0.0836272 58.5976 0.246242ZM68.2839 1.61835C68.2924 2.92432 68.3454 3.04241 68.6647 2.46178C69.2348 1.42436 69.5881 1.29177 71.7901 1.28603L73.8344 1.28097L73.8295 8.2815C73.8266 12.1316 73.7163 15.4467 73.5842 15.6481C73.452 15.8495 73.0494 16.1865 72.6896 16.3971C72.1675 16.7024 72.6925 16.7817 75.2864 16.7901L78.5371 16.8002L77.8214 16.1123C77.1289 15.447 77.1054 15.193 77.1054 8.35268V1.28097H79.3679C81.4519 1.28097 81.6841 1.35418 82.3151 2.20875L83 3.13653L82.9146 1.64669L82.8296 0.156838L75.552 0.128498L68.2741 0.100159L68.2839 1.61835Z" fill="#C53030"/>
</svg>
